<?xml version="1.0" encoding="utf-8"?>
<!-- Generator: Adobe Illustrator 23.0.5, SVG Export Plug-In . SVG Version: 6.00 Build 0)  -->
<svg version="1.1" id="Capa_1" xmlns="http://www.w3.org/2000/svg" xmlns:xlink="http://www.w3.org/1999/xlink" x="0px" y="0px"
	 viewBox="0 0 512 512" style="enable-background:new 0 0 512 512;" xml:space="preserve">
<style type="text/css">
	.st0{fill:#555555;}
</style>
<g>
	<g>
		<path class="st0" d="M255.5,0.5c-81.4,0-147.7,66.3-147.7,147.7c0,50.4,25.4,95.1,64.1,121.7c-36.1,12.5-69.3,33.1-97.1,60.9
			C26.6,379.1,0,443.3,0,511.5h39.9c0-118.9,96.7-215.6,215.6-215.6c81.4,0,147.7-66.3,147.7-147.7S336.9,0.5,255.5,0.5z M255.5,256
			c-59.4,0-107.8-48.4-107.8-107.8S196.1,40.4,255.5,40.4s107.8,48.4,107.8,107.8S314.9,256,255.5,256z"/>
	</g>
</g>
<g>
	<g>
		<polygon class="st0" points="428.2,387.7 428.2,303.9 388.2,303.9 388.2,387.7 304.4,387.7 304.4,427.7 388.2,427.7 388.2,511.5 
			428.2,511.5 428.2,427.7 512,427.7 512,387.7 		"/>
	</g>
</g>
</svg>
