<?xml version="1.0" encoding="utf-8"?>
<!-- Generator: Adobe Illustrator 23.0.5, SVG Export Plug-In . SVG Version: 6.00 Build 0)  -->
<svg version="1.1" id="Capa_1" xmlns="http://www.w3.org/2000/svg" xmlns:xlink="http://www.w3.org/1999/xlink" x="0px" y="0px"
	 viewBox="0 0 512 512" style="enable-background:new 0 0 512 512;" xml:space="preserve">
<style type="text/css">
	.st0{fill:#555555;}
</style>
<g>
	<g>
		<g>
			<path class="st0" d="M156,256c0,11,9,20,20,20h60v60c0,11,9,20,20,20c11,0,20-9,20-20v-60h60c11,0,20-9,20-20c0-11-9-20-20-20
				h-60v-60c0-11-9-20-20-20s-20,9-20,20v60h-60C165,236,156,245,156,256z"/>
			<path class="st0" d="M160.4,61.8l25.9-10.7c10.2-4.2,15.1-15.9,10.8-26.1S181.2,9.9,171,14.1l-25.9,10.7
				C134.9,29.1,130,40.8,134.3,51C138.5,61.1,150.2,66,160.4,61.8z"/>
			<path class="st0" d="M256,0c-11,0-20,9-20,20s9,20,20,20c119.4,0,216,96.6,216,216c0,119.4-96.6,216-216,216
				c-119.4,0-216-96.6-216-216c0-11-9-20-20-20s-20,9-20,20c0,141.5,114.5,256,256,256c141.5,0,256-114.5,256-256
				C512,114.5,397.5,0,256,0z"/>
			<path class="st0" d="M93.4,113.2l19.8-19.8c7.8-7.8,7.8-20.5,0-28.3s-20.5-7.8-28.3,0L65.1,84.9c-7.8,7.8-7.8,20.5,0,28.3
				C72.9,121,85.6,121,93.4,113.2z"/>
			<path class="st0" d="M25,197.1c10.2,4.2,21.9-0.6,26.1-10.8l10.7-25.9c4.2-10.2-0.6-21.9-10.8-26.1c-10.2-4.2-21.9,0.6-26.1,10.8
				L14.1,171C9.9,181.2,14.7,192.9,25,197.1z"/>
		</g>
	</g>
</g>
</svg>
