<?xml version="1.0" encoding="utf-8"?>
<!-- Generator: Adobe Illustrator 23.0.5, SVG Export Plug-In . SVG Version: 6.00 Build 0)  -->
<svg version="1.1" id="light" xmlns="http://www.w3.org/2000/svg" xmlns:xlink="http://www.w3.org/1999/xlink" x="0px" y="0px"
	 viewBox="0 0 512 512" style="enable-background:new 0 0 512 512;" xml:space="preserve">
<style type="text/css">
	.st0{fill:#555555;}
</style>
<g>
	<path class="st0" d="M202.7,170.7H32c-17.6,0-32-14.4-32-32V32C0,14.4,14.4,0,32,0h170.7c17.6,0,32,14.4,32,32v106.7
		C234.7,156.3,220.3,170.7,202.7,170.7z M32,21.3c-5.9,0-10.7,4.8-10.7,10.7v106.7c0,5.9,4.8,10.7,10.7,10.7h170.7
		c5.9,0,10.7-4.8,10.7-10.7V32c0-5.9-4.8-10.7-10.7-10.7H32z"/>
</g>
<g>
	<path class="st0" d="M202.7,512H32c-17.6,0-32-14.4-32-32V245.3c0-17.6,14.4-32,32-32h170.7c17.6,0,32,14.4,32,32V480
		C234.7,497.6,220.3,512,202.7,512z M32,234.7c-5.9,0-10.7,4.8-10.7,10.7V480c0,5.9,4.8,10.7,10.7,10.7h170.7
		c5.9,0,10.7-4.8,10.7-10.7V245.3c0-5.9-4.8-10.7-10.7-10.7H32z"/>
</g>
<g>
	<path class="st0" d="M480,512H309.3c-17.6,0-32-14.4-32-32V373.3c0-17.6,14.4-32,32-32H480c17.6,0,32,14.4,32,32V480
		C512,497.6,497.6,512,480,512z M309.3,362.7c-5.9,0-10.7,4.8-10.7,10.7V480c0,5.9,4.8,10.7,10.7,10.7H480c5.9,0,10.7-4.8,10.7-10.7
		V373.3c0-5.9-4.8-10.7-10.7-10.7H309.3z"/>
</g>
<g>
	<path class="st0" d="M480,298.7H309.3c-17.6,0-32-14.4-32-32V32c0-17.6,14.4-32,32-32H480c17.6,0,32,14.4,32,32v234.7
		C512,284.3,497.6,298.7,480,298.7z M309.3,21.3c-5.9,0-10.7,4.8-10.7,10.7v234.7c0,5.9,4.8,10.7,10.7,10.7H480
		c5.9,0,10.7-4.8,10.7-10.7V32c0-5.9-4.8-10.7-10.7-10.7H309.3z"/>
</g>
</svg>
